<?xml version="1.0" encoding="UTF-8"?>
<svg width="47px" height="40px" viewBox="0 0 47 40" version="1.1" xmlns="http://www.w3.org/2000/svg" xmlns:xlink="http://www.w3.org/1999/xlink">
    <!-- Generator: Sketch 48.2 (47327) - http://www.bohemiancoding.com/sketch -->
    <title>care</title>
    <desc>Created with Sketch.</desc>
    <defs></defs>
    <g id="navigation" stroke="none" stroke-width="1" fill="none" fill-rule="evenodd" transform="translate(-27.000000, -347.000000)">
        <g fill="#3A3B3D" fill-rule="nonzero" id="care">
            <g transform="translate(27.000000, 347.000000)">
                <path d="M27.9941345,34.0561267 L24.4394503,34.0561267 C23.9335361,34.0561267 23.5233626,34.4662086 23.5233626,34.9722144 C23.5233626,35.4782203 23.9335361,35.8883021 24.4394503,35.8883021 L27.9941345,35.8883021 C28.5427427,35.8883021 28.9891053,36.3345731 28.9891053,36.8831813 C28.9891053,37.4317895 28.5428343,37.8780604 27.9941345,37.8780604 L18.425191,37.8780604 C16.9867895,37.8780604 15.6341423,37.2438811 14.7142982,36.1380526 L12.4259571,33.387499 C11.1980936,31.9115341 9.41108577,31.0471189 7.49901949,30.992423 L7.49901949,25.5808265 L10.8720253,25.5808265 C12.5354405,25.5808265 14.1104444,26.2170214 15.3070663,27.3721404 L20.2460058,32.1394795 C20.5951618,32.4765419 20.6114698,33.0409084 20.2822865,33.3974854 C19.9467817,33.7608421 19.3772846,33.7845712 19.0127368,33.4504405 L15.135191,29.8960312 C14.7623977,29.5542047 14.1828226,29.579308 13.8409961,29.9522846 C13.499078,30.3252612 13.5242729,30.9047446 13.8972495,31.2465712 L17.7747953,34.8009805 C18.2977505,35.2803255 18.9595068,35.5170663 19.619614,35.5170663 C20.3565887,35.5170663 21.0914561,35.2219649 21.6286121,34.6400994 C22.6277973,33.5576335 22.5784152,31.8445614 21.5184873,30.8213723 L16.5795478,26.0540331 C15.0395419,24.5674405 13.0125867,23.7487427 10.8720253,23.7487427 L7.32109747,23.7487427 C6.9764308,22.9329766 6.16808577,22.3589903 5.22826901,22.3589903 L0.916087719,22.3589903 C0.410173489,22.3589903 0,22.7690721 0,23.275078 L0,29.9739064 C0,30.4798207 0.410173489,30.8899942 0.916087719,30.8899942 C1.42200195,30.8899942 1.83217544,30.4799123 1.83217544,29.9739064 L1.83217544,24.1910741 L5.22836062,24.1910741 C5.47023197,24.1910741 5.66693567,24.3878694 5.66693567,24.6296491 L5.66693567,31.9721852 C5.66693567,32.2139649 5.47023197,32.4107602 5.22836062,32.4107602 L4.27690838,32.4107602 C3.77099415,32.4107602 3.36082066,32.8208421 3.36082066,33.326848 C3.36082066,33.8327622 3.77099415,34.2429357 4.27690838,34.2429357 L5.22826901,34.2429357 C6.18072904,34.2429357 6.99750292,33.6532827 7.33419883,32.8200175 C8.76233918,32.8281715 10.1035341,33.4606101 11.0175146,34.5592924 L13.3058558,37.309846 C14.5749474,38.8353762 16.4408382,39.7102359 18.425191,39.7102359 L27.9941345,39.7102359 C29.552922,39.7102359 30.8211891,38.4420604 30.8211891,36.8831813 C30.8211891,35.3243021 29.552922,34.0561267 27.9941345,34.0561267 Z" id="Shape"></path>
                <path d="M45.9922943,8.51442105 C45.4863801,8.51442105 45.0762066,8.92450292 45.0762066,9.43050877 L45.0762066,15.5712008 L41.6800214,15.5712008 C41.4381501,15.5712008 41.2414464,15.3744055 41.2414464,15.1326257 L41.2414464,7.79008967 C41.2414464,7.54830994 41.4381501,7.35151462 41.6800214,7.35151462 L42.5642261,7.35151462 C43.0701404,7.35151462 43.4803138,6.94143275 43.4803138,6.4354269 C43.4803138,5.92951267 43.0701404,5.51933918 42.5642261,5.51933918 L41.6800214,5.51933918 C40.7275614,5.51933918 39.9107875,6.1089922 39.5740916,6.94225731 C38.1459513,6.93410331 36.8047563,6.30166472 35.8907758,5.20298246 L33.6024347,2.45252047 C32.3334347,0.926990253 30.4674522,0.0520389864 28.4830078,0.0520389864 L18.9142476,0.0520389864 C17.35546,0.0520389864 16.087193,1.32021442 16.087193,2.87900195 C16.087193,4.43778947 17.35546,5.70596491 18.9142476,5.70596491 L22.8270663,5.70596491 C23.3329805,5.70596491 23.743154,5.29588304 23.743154,4.78987719 C23.743154,4.28387135 23.3329805,3.87378947 22.8270663,3.87378947 L18.9142476,3.87378947 C18.3656394,3.87378947 17.9192768,3.42751852 17.9192768,2.87891033 C17.9192768,2.33039376 18.3655478,1.88403119 18.9142476,1.88403119 L28.4830994,1.88403119 C29.9215926,1.88403119 31.2742398,2.51821053 32.1940838,3.62403899 L34.482425,6.37450097 C35.7101969,7.85046589 37.4972963,8.71488109 39.4093626,8.76966862 L39.4093626,14.1812651 L36.0363567,14.1812651 C34.3729415,14.1812651 32.7979376,13.5450702 31.6013158,12.3899513 L26.6623762,7.62261209 C26.3132203,7.28554971 26.2969123,6.72127485 26.6260955,6.36460624 C26.9616004,6.00115789 27.5310975,5.97752047 27.8956452,6.31165107 L31.7732827,9.86606043 C32.1462593,10.2078869 32.7255595,10.1827836 33.0675692,9.80980702 C33.4093957,9.43683041 33.3842008,8.85734698 33.0112242,8.51552047 L29.1335867,4.96120273 C28.0268421,3.94671735 26.2981949,4.0190039 25.27977,5.12208382 C24.2805848,6.20464133 24.3299669,7.91771345 25.3898947,8.94081092 L30.3288343,13.7081501 C31.8688402,15.1947427 33.8957953,16.0134405 36.0363567,16.0134405 L39.5872846,16.0134405 C39.9319513,16.8292066 40.7402963,17.403193 41.6801131,17.403193 L45.992386,17.403193 C46.4983002,17.403193 46.9084737,16.9931111 46.9084737,16.4871053 L46.9084737,9.43032554 C46.9083821,8.92450292 46.4982086,8.51442105 45.9922943,8.51442105 Z" id="Shape"></path>
                <path d="M29.5777505,31.2090078 C29.3694113,30.7479864 28.8279493,30.5423041 28.3672943,30.7505517 C27.9033411,30.9525692 27.691154,31.4923821 27.8931715,31.956152 C28.0432417,32.3009103 28.3800292,32.5066842 28.7334912,32.5066842 C28.8556179,32.5066842 28.9796686,32.4821306 29.0987719,32.4302749 C29.1026199,32.4286257 29.1147135,32.4232203 29.1184698,32.4215712 C29.5795828,32.2133236 29.7859981,31.6701209 29.5777505,31.2090078 Z" id="Shape"></path>
                <path d="M31.8549142,29.6667115 C31.5554152,29.2599279 30.9797797,29.1752729 30.572538,29.4733977 C30.1643801,29.7722554 30.075694,30.3455088 30.3745517,30.7536667 C30.5540312,30.9987446 30.8321832,31.1286589 31.1143665,31.1286589 C31.3021832,31.1286589 31.4917407,31.0711228 31.6548207,30.9517446 C31.6562865,30.9507368 31.6648986,30.9443236 31.6662729,30.9433158 C32.0720487,30.642809 32.1543216,30.0733119 31.8549142,29.6667115 Z" id="Shape"></path>
                <path d="M27.0166628,32.2374191 C26.9123099,31.7440565 26.4279259,31.4281579 25.9341053,31.5302203 C25.4408343,31.6281598 25.1183392,32.1059474 25.2128889,32.6006842 C25.2968109,33.0395341 25.6807817,33.3448967 26.1116608,33.3448967 C26.1686472,33.3448967 26.2266413,33.3394912 26.2846355,33.3284055 C26.2905906,33.3272144 26.305616,33.324191 26.3116628,33.3229084 C26.8063996,33.2180058 27.1213821,32.7322476 27.0166628,32.2374191 Z" id="Shape"></path>
                <path d="M33.7686296,27.6742047 C33.3929961,27.3354016 32.8138791,27.3651774 32.4748928,27.7409025 C32.4704035,27.7459415 32.4598674,27.7578519 32.4554698,27.7628908 C32.1249123,28.1459454 32.1676062,28.7244211 32.5506608,29.0548869 C32.7237271,29.2042242 32.9366472,29.2773353 33.1485595,29.2773353 C33.4029825,29.2773353 33.6559396,29.1719747 33.8367934,28.966384 C34.1741306,28.5906589 34.1438051,28.0125497 33.7686296,27.6742047 Z M33.2570351,28.4471014 L33.1551559,28.3544678 L33.2654639,28.4544678 L33.2570351,28.4471014 Z" id="Shape"></path>
                <path d="M36.100306,22.7096121 C35.6161969,22.5627485 35.1040526,22.8389766 34.9571891,23.3231774 C34.8084016,23.8067368 35.0797739,24.3193392 35.5633333,24.4681267 C35.6530273,24.4957953 35.743729,24.5088967 35.8329649,24.5088967 C36.22454,24.5088967 36.5870721,24.255848 36.708191,23.8619825 L36.712039,23.8494308 C36.8588109,23.36523 36.5844152,22.856384 36.100306,22.7096121 Z" id="Shape"></path>
                <path d="M37.2736569,17.981577 C37.2716413,17.9699415 37.2694425,17.958306 37.2669688,17.9466706 C37.1635322,17.4515673 36.6783236,17.1348441 36.1834035,17.2380975 C35.6902242,17.3408928 35.3731345,17.8231696 35.4724483,18.3162573 C35.556462,18.7533665 35.9395166,19.0592788 36.3708538,19.0592788 C36.4244503,19.0592788 36.4788713,19.0546062 36.533384,19.0448031 C37.0314191,18.9556589 37.3628012,18.4796121 37.2736569,17.981577 Z" id="Shape"></path>
                <path d="M36.4335205,19.9692281 C35.9311793,19.924885 35.485,20.2973119 35.4405653,20.8012105 C35.4397407,20.8100975 35.4384581,20.8281462 35.4379084,20.8370331 C35.4082242,21.3421228 35.7934776,21.7756589 36.2985673,21.8053431 C36.3168908,21.8064425 36.3350312,21.8069922 36.3531715,21.8069922 C36.8301345,21.8069922 37.230963,21.4381384 37.2660526,20.9577856 C37.3078304,20.4557193 36.9360448,20.0135712 36.4335205,19.9692281 Z" id="Shape"></path>
                <path d="M35.2035497,25.3163255 C34.7637836,25.0670331 34.2043645,25.221501 33.9549805,25.6617251 L33.9422456,25.6846296 C33.7010156,26.1293431 33.8638207,26.6894035 34.3084425,26.9306335 C34.4483431,27.0064932 34.5988713,27.042499 34.7472008,27.042499 C35.0705205,27.042499 35.382846,26.8709903 35.5482164,26.5660858 L34.7518733,26.1133099 L35.5488577,26.5649864 C35.7983333,26.1247622 35.6437739,25.5658012 35.2035497,25.3163255 Z" id="Shape"></path>
                <path d="M18.5888207,7.86998051 C18.362616,7.41738791 17.8120838,7.23387719 17.3598577,7.46026511 L17.3517037,7.4642963 C16.8991111,7.69059259 16.7198148,8.23874269 16.9461111,8.69124366 C17.1063509,9.01181481 17.4310448,9.19633333 17.7676491,9.19633333 C17.9063587,9.19633333 18.0470838,9.165 18.1791053,9.09903509 C18.6316979,8.87283041 18.8150253,8.3225731 18.5888207,7.86998051 Z" id="Shape"></path>
                <path d="M21.2390526,7.10616179 C21.1198577,6.61463158 20.6253041,6.31247563 20.1328577,6.43176218 C20.1286433,6.43276998 20.1156335,6.43606823 20.1114191,6.43716764 C19.6214464,6.56341715 19.3246959,7.06337622 19.4508538,7.55325731 C19.5574055,7.96663743 19.9281832,8.24139961 20.3357914,8.24139961 C20.4112846,8.24139961 20.4880604,8.23196296 20.564653,8.21226511 C21.0562749,8.09307018 21.3582476,7.59787524 21.2390526,7.10616179 Z" id="Shape"></path>
                <path d="M16.1665341,9.19101949 C15.8497193,8.79733723 15.2728928,8.73549513 14.8787524,9.051577 L15.446692,9.77031969 L14.8760039,9.05368421 C14.4802144,9.3688499 14.4148908,9.94512671 14.7299649,10.3409162 C14.9110019,10.5681287 15.177885,10.6864074 15.4473333,10.6864074 C15.6472437,10.6864074 15.8487115,10.6211754 16.0173801,10.4869552 L16.0294737,10.4772437 C16.4225146,10.1597875 16.4833489,9.58470175 16.1665341,9.19101949 Z" id="Shape"></path>
                <path d="M11.2821072,15.7089025 C10.7939669,15.5758733 10.2904347,15.863462 10.1573138,16.3516023 C10.1550234,16.3599396 10.1506257,16.3772554 10.1485185,16.3856842 C10.0294152,16.8772144 10.3313879,17.3714932 10.8228265,17.4908713 C10.8953879,17.508462 10.9679493,17.5168908 11.0394113,17.5168908 C11.4504094,17.5168908 11.8238441,17.2380058 11.927922,16.8223353 C12.0535302,16.3378596 11.7664912,15.8410156 11.2821072,15.7089025 Z" id="Shape"></path>
                <path d="M10.698501,18.4005458 C10.1921287,18.3724191 9.76024172,18.7571228 9.73092398,19.2621209 C9.73019103,19.2739396 9.72973294,19.2856667 9.72936647,19.2973938 C9.71452437,19.8028499 10.1122378,20.2240175 10.6177856,20.2391345 C10.6271306,20.2394094 10.6362924,20.2395926 10.6455458,20.2395926 C11.1366179,20.2395926 11.5423938,19.8499415 11.5605341,19.3566706 C11.5834386,18.8565283 11.1997427,18.4296803 10.698501,18.4005458 Z" id="Shape"></path>
                <path d="M12.4350273,13.2054425 C11.986924,12.9703509 11.4332768,13.1430507 11.1982768,13.5910624 L11.1833431,13.6205634 C10.9600702,14.074347 11.1473372,14.6224055 11.6010292,14.8458616 C11.7309435,14.9099025 11.8686452,14.9401365 12.0045146,14.9401365 C12.3409357,14.9401365 12.6648051,14.7539688 12.8253197,14.433306 C13.0534483,13.9868519 12.8801072,13.4389766 12.4350273,13.2054425 Z" id="Shape"></path>
                <path d="M14.0894639,11.0013899 C13.7001793,10.6782534 13.1226199,10.7318499 12.7994834,11.1210429 C12.7950858,11.1264483 12.7850078,11.1389084 12.7806101,11.1443138 C12.4665439,11.5407446 12.5336998,12.115922 12.9299474,12.4301715 C13.0981579,12.5636589 13.2988012,12.6283411 13.4981618,12.6283411 C13.7668772,12.6283411 14.0333021,12.5107037 14.2142476,12.2851404 C14.5316121,11.896039 14.4766413,11.3228772 14.0894639,11.0013899 Z" id="Shape"></path>
                <path d="M11.7337836,21.8992515 C11.6446394,21.4012164 11.1683177,21.0698343 10.6705575,21.1590702 C10.1725224,21.248306 9.84114035,21.7242612 9.9302846,22.2222963 L9.93193372,22.2312749 C10.0112749,22.6740643 10.3957953,22.9816257 10.8301559,22.9816257 C10.8843021,22.9816257 10.9391813,22.9768616 10.9943353,22.9669669 C11.4923704,22.8778226 11.8230195,22.3972865 11.7337836,21.8992515 Z" id="Shape"></path>
                <path d="M26.5996179,14.9451754 C25.4072105,14.9451754 24.3023899,15.4368889 23.515117,16.2666725 C22.7277524,15.4368889 21.6230234,14.9451754 20.430616,14.9451754 C18.084922,14.9451754 16.1766121,16.8534854 16.1766121,19.1991793 C16.1766121,20.4648811 16.7348402,21.6560975 17.7080058,22.4674659 C17.7138694,22.4724133 17.7199162,22.477269 17.725963,22.4821248 L22.9464444,26.615193 C23.1130058,26.7471228 23.3140156,26.8129961 23.5150253,26.8129961 C23.7169513,26.8129961 23.9188772,26.7464815 24.0858051,26.6134522 L29.5274522,22.2790078 C29.5541131,22.2578441 29.5794912,22.2351228 29.6035867,22.2111189 C30.4097329,21.4071715 30.8536218,20.3375322 30.8536218,19.1991793 C30.8536218,16.8534854 28.9453119,14.9451754 26.5996179,14.9451754 Z M28.342924,20.88046 L23.5134678,24.7273138 L18.8730195,21.0535263 C18.3236784,20.5914055 18.0087875,19.9162729 18.0087875,19.1993626 C18.0086959,17.863848 19.095193,16.7773509 20.430616,16.7773509 C21.413768,16.7773509 22.2922924,17.3645302 22.6688421,18.2731969 C22.8107583,18.6153899 23.1447057,18.8385712 23.515117,18.8385712 C23.8855283,18.8385712 24.2194756,18.6154815 24.3613918,18.2731969 C24.7379415,17.3645302 25.6164659,16.7773509 26.5996179,16.7773509 C27.9350409,16.7773509 29.021538,17.863848 29.021538,19.199271 C29.021538,19.8316179 28.7808577,20.426768 28.342924,20.88046 Z" id="Shape"></path>
                <circle id="Oval" cx="0.916087719" cy="33.3269396" r="1"></circle>
                <circle id="Oval" cx="45.9922027" cy="6.43524366" r="1"></circle>
            </g>
        </g>
    </g>
</svg>