<?xml version="1.0" encoding="UTF-8"?>
<svg width="47px" height="51px" viewBox="0 0 47 51" version="1.1" xmlns="http://www.w3.org/2000/svg" xmlns:xlink="http://www.w3.org/1999/xlink">
    <!-- Generator: Sketch 48.2 (47327) - http://www.bohemiancoding.com/sketch -->
    <title>computer</title>
    <desc>Created with Sketch.</desc>
    <defs></defs>
    <g id="navigation" stroke="none" stroke-width="1" fill="none" fill-rule="evenodd" transform="translate(-27.000000, -443.000000)">
        <g fill="#3A3B3D" fill-rule="nonzero" id="computer">
            <g transform="translate(27.000000, 443.000000)">
                <path d="M17.1315,31.9738689 L16.7751475,35.3395055 C16.7463825,35.6111038 16.8342186,35.8820601 17.0169536,36.0850847 C17.1995601,36.2881093 17.4598579,36.4039399 17.7329973,36.4039399 L27.916459,36.4039399 C28.1894699,36.4039399 28.4497678,36.2879809 28.6325027,36.0850847 C28.8151093,35.8820601 28.9029454,35.6111038 28.8743087,35.3395055 L28.5179563,31.9738689 L41.2024344,31.9738689 C43.1766913,31.9738689 44.7827814,30.3677787 44.7827814,28.3935219 L44.7827814,3.58034699 C44.782653,1.60609016 43.1764344,0 41.202306,0 L3.67653005,0 C1.70227322,0 0.0961830601,1.60609016 0.0961830601,3.58034699 L0.0961830601,28.3935219 C0.0961830601,30.3677787 1.70227322,31.9738689 3.67653005,31.9738689 L17.1315,31.9738689 Z M26.8458607,34.4778388 L18.8033388,34.4778388 L19.068388,31.9738689 L26.5806831,31.9738689 L26.8458607,34.4778388 Z M3.67653005,1.92622951 L41.202306,1.92622951 C42.1144399,1.92622951 42.8564235,2.66821311 42.8564235,3.58034699 L42.8564235,25.4249454 L2.02241257,25.4249454 L2.02241257,3.58034699 C2.02241257,2.66821311 2.76439617,1.92622951 3.67653005,1.92622951 Z M2.02241257,28.3935219 L2.02241257,27.3511749 L42.8562951,27.3511749 L42.8562951,28.3935219 C42.8562951,29.3056557 42.1143115,30.0476393 41.2021776,30.0476393 L3.67653005,30.0476393 C2.76439617,30.0476393 2.02241257,29.3056557 2.02241257,28.3935219 Z" id="Shape"></path>
                <path d="M41.175724,42.8747869 C41.3503689,42.5871366 41.3623115,42.2292432 41.2070574,41.9306776 L39.3048415,38.2709699 C39.1390574,37.9521148 38.8096721,37.7520437 38.4502377,37.7520437 L6.42859836,37.7520437 C6.06929235,37.7520437 5.73977869,37.9521148 5.57399454,38.2709699 L3.67177869,41.9306776 C3.51665301,42.2292432 3.52846721,42.5871366 3.70311202,42.8747869 C3.87775683,43.1624372 4.18993443,43.3379809 4.52638251,43.3379809 L40.3524536,43.3379809 C40.6889016,43.3381093 41.0010792,43.1624372 41.175724,42.8747869 Z M6.11243989,41.4118798 L7.01340164,39.6784016 L37.865306,39.6784016 L38.7663962,41.4118798 L6.11243989,41.4118798 Z" id="Shape"></path>
                <path d="M42.8564235,45.071459 L41.3154399,45.071459 C39.085123,45.071459 37.2704863,46.8859672 37.2704863,49.1164126 C37.2704863,49.6483087 37.7017049,50.0795273 38.2336011,50.0795273 L45.9381339,50.0795273 C46.4700301,50.0795273 46.9012486,49.6483087 46.9012486,49.1164126 C46.901377,46.8860956 45.0868689,45.071459 42.8564235,45.071459 Z M39.4286339,48.1532978 C39.7798497,47.4679454 40.4938388,46.9976885 41.3154399,46.9976885 L42.8564235,46.9976885 C43.6780246,46.9976885 44.3920137,47.4679454 44.7433579,48.1532978 L39.4286339,48.1532978 Z" id="Shape"></path>
            </g>
        </g>
    </g>
</svg>