<?xml version="1.0" encoding="UTF-8"?>
<svg width="47px" height="47px" viewBox="0 0 47 47" version="1.1" xmlns="http://www.w3.org/2000/svg" xmlns:xlink="http://www.w3.org/1999/xlink">
    <!-- Generator: Sketch 48.2 (47327) - http://www.bohemiancoding.com/sketch -->
    <title>money</title>
    <desc>Created with Sketch.</desc>
    <defs></defs>
    <g id="navigation" stroke="none" stroke-width="1" fill="none" fill-rule="evenodd" transform="translate(-27.000000, -550.000000)">
        <g fill="#3A3B3D" fill-rule="nonzero" id="money">
            <g transform="translate(27.000000, 550.000000)">
                <path d="M7.8090458,41.7596508 C7.63840192,41.5888233 7.40157501,41.4906962 7.16015844,41.4906962 C6.91874187,41.4906962 6.68191497,41.5888233 6.5111793,41.7596508 C6.34044363,41.9304783 6.24222472,42.1672134 6.24222472,42.4086299 C6.24222472,42.6500465 6.34035183,42.8868734 6.5111793,43.0575173 C6.68191497,43.228253 6.91874187,43.3265637 7.16015844,43.3265637 C7.40157501,43.3265637 7.63840192,43.2283448 7.8090458,43.0575173 C7.97978147,42.8868734 8.07809217,42.6500465 8.07809217,42.4086299 C8.07809217,42.1672134 7.97987326,41.9303865 7.8090458,41.7596508 Z" id="Shape"></path>
                <path d="M43.0991915,16.792496 C42.9284558,16.6216685 42.6925468,16.5235414 42.4502123,16.5235414 C42.2087958,16.5235414 41.9719689,16.6216685 41.8012332,16.792496 C41.6305893,16.9632317 41.5322786,17.2000586 41.5322786,17.4414751 C41.5322786,17.6828917 41.6304975,17.9197186 41.8012332,18.0903625 C41.9719689,18.2610982 42.2087958,18.3594089 42.4502123,18.3594089 C42.6925468,18.3594089 42.9284558,18.26119 43.0991915,18.0903625 C43.2707533,17.9197186 43.3689722,17.6828917 43.3689722,17.4414751 C43.3689722,17.2000586 43.2707533,16.9632317 43.0991915,16.792496 Z" id="Shape"></path>
                <path d="M46.7287932,0.268862788 C46.5565889,0.0967502147 46.3230665,0 46.0795387,0 L23.4989198,0.00119331384 C22.9920368,0.00119331384 22.5810779,0.412244036 22.5810779,0.91912704 L22.5810779,3.54414212 L13.8800759,5.87560199 C13.3903582,6.00686651 13.0997404,6.51016957 13.2310049,6.99979542 L17.740538,23.8293759 L13.8394114,27.7305025 C13.3429011,27.0055184 12.5092336,26.5287437 11.5662403,26.5287437 L2.75435194,26.5287437 C1.23590597,26.5287437 0.000642553608,27.7640989 0.000642553608,29.282453 L0.000642553608,44.2444056 C0.000642553608,45.7628516 1.23590597,46.9982068 2.75435194,46.9982068 L11.5663321,46.9982068 C12.8563044,46.9982068 13.9414856,46.1063424 14.2388962,44.9071538 L15.3303194,45.8589592 C16.1728907,46.5936734 17.2523808,46.9982986 18.3703323,46.9982986 L46.0797223,46.9982986 C46.5866053,46.9982986 46.997656,46.5872479 46.997656,46.0803648 L46.997656,0.917933726 C46.9974724,0.674497702 46.9009058,0.440975362 46.7287932,0.268862788 Z M12.4840823,44.2444974 C12.4840823,44.7505543 12.0722972,45.1624311 11.5661485,45.1624311 L2.75426015,45.1624311 C2.24811149,45.1624311 1.83632642,44.7506461 1.83632642,44.2444974 L1.83632642,29.2825448 C1.83632642,28.7763962 2.24811149,28.3646111 2.75426015,28.3646111 L6.24231651,28.3646111 L6.24231651,38.9387487 C6.24231651,39.4456317 6.65336723,39.8566824 7.16025024,39.8566824 C7.66713324,39.8566824 8.07818396,39.4456317 8.07818396,38.9387487 L8.07818396,28.3646111 L11.5662403,28.3646111 C12.072389,28.3646111 12.4841741,28.7763962 12.4841741,29.2825448 L12.4841741,44.2444974 L12.4840823,44.2444974 Z M15.2418306,7.41130511 L22.5810779,5.4447239 L22.5810779,8.84612732 L21.9658787,9.01098822 C21.7306123,9.07405026 21.5302273,9.22780416 21.4085093,9.43865354 C21.2867913,9.64950292 21.2537457,9.90000703 21.3168077,10.1351817 C21.6695697,11.4515904 20.8855625,12.8094898 19.5691537,13.1622517 C19.3337037,13.2254055 19.1329516,13.3794348 19.0113254,13.5907432 C18.8896992,13.8019597 18.8569289,14.0529228 18.9205418,14.288281 L22.4985556,27.5375528 L20.6562626,27.5375528 L19.7068438,23.8232258 C19.6766438,23.7049959 19.6237708,23.5960372 19.5529981,23.5013064 L15.2418306,7.41130511 Z M22.5810779,13.0556796 L22.5810779,20.8012962 L20.9068585,14.6020307 C21.6062323,14.2409156 22.1785639,13.7006198 22.5810779,13.0556796 Z M35.768481,45.1623393 L18.3701487,45.1623393 C17.6959264,45.1623393 17.044836,44.9183525 16.5366679,44.4752659 L14.3199497,42.5420057 L14.3199497,29.8463397 L18.3274648,25.8388247 L19.0542847,28.6825833 C19.1581948,29.0889526 19.524175,29.3731449 19.9435789,29.3731449 L37.9905231,29.3742464 C38.699168,29.3742464 39.2756303,29.9507088 39.2756303,30.6593536 C39.2756303,31.3679985 38.699168,31.9444608 37.9905231,31.9444608 L28.7432588,31.9444608 C28.2363758,31.9444608 27.825325,32.3555116 27.825325,32.8623946 C27.825325,33.3692776 28.2363758,33.7803283 28.7432588,33.7803283 L40.8636557,33.7803283 C41.5723005,33.7803283 42.1487629,34.3567907 42.1487629,35.0654355 C42.1487629,35.7740803 41.5723005,36.3505427 40.8636557,36.3505427 L28.7432588,36.3505427 C28.2363758,36.3505427 27.825325,36.7615935 27.825325,37.2684765 C27.825325,37.7753595 28.2363758,38.1864102 28.7432588,38.1864102 L38.8995529,38.1864102 C39.6081977,38.1864102 40.1846601,38.7628726 40.1846601,39.4715174 C40.1846601,40.1801622 39.6081977,40.7566246 38.8995529,40.7566246 L28.7432588,40.7566246 C28.2363758,40.7566246 27.825325,41.1676753 27.825325,41.6745583 C27.825325,42.1814413 28.2363758,42.5924921 28.7432588,42.5924921 L35.768481,42.5924921 C36.4771258,42.5924921 37.0535882,43.1689544 37.0535882,43.8775993 C37.0534964,44.5858769 36.477034,45.1623393 35.768481,45.1623393 Z M45.1617886,45.1623393 L38.6114135,45.1623393 C38.7894008,44.7701062 38.8893638,44.335281 38.8893638,43.8772321 C38.8893638,43.4191832 38.7894008,42.984358 38.6114135,42.5921249 L38.8995529,42.5921249 C40.6204033,42.5921249 42.0204358,41.1920924 42.0204358,39.471242 C42.0204358,38.9693159 41.9006454,38.4950195 41.6891535,38.0744223 C43.0106109,37.7114713 43.9844468,36.5002577 43.9844468,35.0652519 C43.9844468,34.369091 43.7551469,33.7255277 43.3684214,33.2059772 L43.3684214,21.5720851 C43.3684214,21.0652021 42.9573707,20.6541514 42.4504877,20.6541514 C41.9436047,20.6541514 41.532554,21.0652021 41.532554,21.5720851 L41.532554,32.0174366 C41.3168396,31.970163 41.0931391,31.9444608 40.8634721,31.9444608 L40.8333639,31.9444608 C41.0113512,31.5522278 41.1113142,31.1174026 41.1113142,30.6593536 C41.1113142,28.9384115 39.7112817,27.5384708 37.9904313,27.5384708 L36.5148529,27.5384708 C38.0816739,26.8665433 39.1820929,25.3091769 39.1820929,23.4991034 C39.1820929,21.0767681 37.2114728,19.1060562 34.7891375,19.1060562 C32.3668939,19.1060562 30.396182,21.0767681 30.396182,23.4991034 C30.396182,25.3091769 31.4966928,26.8665433 33.0634221,27.5384708 L28.0457209,27.5384708 L28.0457209,10.0846953 C29.6855177,9.7273437 30.9794371,8.43351611 31.3366969,6.79362751 L38.2414862,6.79362751 C38.598746,8.43351611 39.8926654,9.7273437 41.5324622,10.0846953 L41.5324622,12.9385513 C41.5324622,13.4454343 41.9435129,13.856485 42.4503959,13.856485 C42.9572789,13.856485 43.3683297,13.4454343 43.3683297,12.9385513 L43.3683297,9.26516407 C43.3683297,8.75828106 42.9572789,8.34723034 42.4503959,8.34723034 C41.0875397,8.34723034 39.9789512,7.23845819 39.9789512,5.87569378 C39.9789512,5.36881078 39.5679004,4.95776006 39.0610174,4.95776006 L30.5172575,4.95776006 C30.0103745,4.95776006 29.5993238,5.36881078 29.5993238,5.87569378 C29.5993238,7.23854998 28.4906434,8.34723034 27.127879,8.34723034 C26.620996,8.34723034 26.2099453,8.75828106 26.2099453,9.26516407 L26.2099453,27.538379 L24.4170371,27.538379 L24.4170371,1.83687718 L45.1617886,1.83586745 L45.1617886,45.1623393 Z M34.789321,26.0562832 C33.3792831,26.0562832 32.2322331,24.9091414 32.2322331,23.4991952 C32.2322331,22.089249 33.3793748,20.9420154 34.789321,20.9420154 C36.1992673,20.9420154 37.346409,22.0891572 37.346409,23.4991034 C37.346409,24.9090496 36.199359,26.0562832 34.789321,26.0562832 Z" id="Shape"></path>
            </g>
        </g>
    </g>
</svg>