<?xml version="1.0" encoding="UTF-8"?>
<svg width="47px" height="47px" viewBox="0 0 47 47" version="1.1" xmlns="http://www.w3.org/2000/svg" xmlns:xlink="http://www.w3.org/1999/xlink">
    <!-- Generator: Sketch 48.2 (47327) - http://www.bohemiancoding.com/sketch -->
    <title>united-kingdom</title>
    <desc>Created with Sketch.</desc>
    <defs></defs>
    <g id="navigation" stroke="none" stroke-width="1" fill="none" fill-rule="evenodd" transform="translate(-27.000000, -244.000000)">
        <g fill="#3A3B3D" fill-rule="nonzero" id="united-kingdom">
            <g transform="translate(27.000000, 244.000000)">
                <path d="M6.06451613,6.82258065 L6.06451613,6.80287097 C6.9795,6.11075806 7.58064516,5.02369355 7.58064516,3.79032258 C7.58064516,1.70033871 5.88030645,0 3.79032258,0 C1.70033871,0 0,1.70033871 0,3.79032258 C0,5.02369355 0.601145161,6.11075806 1.51612903,6.80287097 L1.51612903,47 L3.03225806,47 L3.03225806,7.50408065 C3.2771129,7.5541129 3.53106452,7.58064516 3.79032258,7.58064516 C4.04958065,7.58064516 4.30353226,7.5541129 4.5483871,7.50408065 L4.5483871,47 L6.06451613,47 L6.06451613,40.1774194 L47,40.1774194 L47,6.82258065 L6.06451613,6.82258065 Z M29.5645161,8.33870968 L41.4107903,8.33870968 L29.5645161,16.038371 L29.5645161,8.33870968 Z M21.983871,8.33870968 L21.983871,16.038371 L10.1375968,8.33870968 L21.983871,8.33870968 Z M7.35625806,8.33870968 L21.983871,17.8471129 L21.983871,19.7096774 L20.692129,19.7096774 L6.06451613,10.2012742 L6.06451613,8.33870968 L7.35625806,8.33870968 Z M17.9107903,19.7096774 L6.06451613,19.7096774 L6.06451613,12.0100161 L17.9107903,19.7096774 Z M3.79032258,6.06451613 C2.53648387,6.06451613 1.51612903,5.04416129 1.51612903,3.79032258 C1.51612903,2.53648387 2.53648387,1.51612903 3.79032258,1.51612903 C5.04416129,1.51612903 6.06451613,2.53648387 6.06451613,3.79032258 C6.06451613,5.04416129 5.04416129,6.06451613 3.79032258,6.06451613 Z M21.983871,38.6612903 L10.1383548,38.6612903 L21.983871,30.961629 L21.983871,38.6612903 Z M21.983871,29.1528871 L7.3555,38.6612903 L6.06451613,38.6612903 L6.06451613,36.7987258 L7.99379032,35.5448871 L7.1675,34.2728548 L6.06451613,34.9899839 L6.06451613,27.2903226 L17.9100323,27.2903226 L8.46151613,33.4321613 L9.28780645,34.7041935 L20.6928871,27.2903226 L21.983871,27.2903226 L21.983871,29.1528871 Z M29.5645161,38.6612903 L29.5645161,30.961629 L41.4100323,38.6612903 L29.5645161,38.6612903 Z M45.483871,38.6612903 L44.1928871,38.6612903 L29.5645161,29.1528871 L29.5645161,27.2903226 L30.8555,27.2903226 L45.483871,36.7987258 L45.483871,38.6612903 Z M45.483871,25.7741935 L43.9677419,25.7741935 L43.9677419,27.2903226 L45.483871,27.2903226 L45.483871,34.9899839 L33.6383548,27.2903226 L42.4516129,27.2903226 L42.4516129,25.7741935 L28.0483871,25.7741935 L28.0483871,38.6612903 L23.5,38.6612903 L23.5,25.7741935 L6.06451613,25.7741935 L6.06451613,21.2258065 L23.5,21.2258065 L23.5,8.33870968 L28.0483871,8.33870968 L28.0483871,21.2258065 L45.483871,21.2258065 L45.483871,25.7741935 Z M45.483871,19.7096774 L33.6375968,19.7096774 L45.483871,12.0100161 L45.483871,19.7096774 Z M45.483871,10.2012742 L30.8562581,19.7096774 L29.5645161,19.7096774 L29.5645161,17.8471129 L44.192129,8.33870968 L45.483871,8.33870968 L45.483871,10.2012742 Z" id="Shape"></path>
            </g>
        </g>
    </g>
</svg>